# xmcd CD database file
#
# Track frame offsets:
#	150
#	12959
#	29439
#	44316
#	61250
#	78694
#	92381
#	107504
#	123156
#	140105
#	155438
#	169996
#	185041
#	215435
#	226476
#
# Disc length: 3273 seconds
#
# Revision: 0
# Processed by: cddbd v1.5.1PL0 Copyright (c) Steve Scherf et al.
# Submitted via: CDex 1.50beta10
#
DISCID=c90cc70f
DTITLE=Dinah Washington - Dinah!
DYEAR=1900
DGENRE=Jazz
TTITLE0=Look To The Rainbow
TTITLE1=Ill Wind
TTITLE2=A Cottage For Sail
TTITLE3=All Of Me
TTITLE4=More Than You Know
TTITLE5=There'll Be Some Changes Made
TTITLE6=Goodbye
TTITLE7=Willow Weep For Me
TTITLE8=Make Me A Present Of You
TTITLE9=Smoke Gets In Your Eyes
TTITLE10=I Could Have Told You
TTITLE11=Accent On Youth
TTITLE12=What Is This Thing Called Love
TTITLE13=The Show Must Go On
TTITLE14=The Birth Of Blues
EXTD=
EXTT0=
EXTT1=
EXTT2=
EXTT3=
EXTT4=
EXTT5=
EXTT6=
EXTT7=
EXTT8=
EXTT9=
EXTT10=
EXTT11=
EXTT12=
EXTT13=
EXTT14=
PLAYORDER=
